<?xml version="1.0" encoding="utf-8"?>
<!-- Generator: Adobe Illustrator 19.1.0, SVG Export Plug-In . SVG Version: 6.00 Build 0)  -->
<svg version="1.1" id="Layer_1" xmlns="http://www.w3.org/2000/svg" xmlns:xlink="http://www.w3.org/1999/xlink" x="0px" y="0px"
	 viewBox="0 0 365 24.8" style="enable-background:new 0 0 365 24.8;" xml:space="preserve">
<style type="text/css">
	.st0{fill:#FF616A;}
</style>
<g>
	<path class="st0" d="M0,9.1c0,0,1.4-0.1,4.1-0.2c2.7-0.1,6.6-0.4,11.6-0.6c5-0.2,11-0.5,18-0.9c7-0.3,14.8-0.7,23.3-1
		C65.6,6,74.9,5.7,84.7,5.3c9.8-0.3,20.1-0.7,30.8-1c10.7-0.3,21.7-0.7,33-1c11.2-0.3,22.6-0.6,34-0.9c22.8-0.6,45.6-1.2,67-1.7
		c10.7-0.2,21-0.5,30.8-0.6C290.1,0,299.4,0,308,0c8.6,0,16.4,0.1,23.3,0.2c7,0.1,13,0.3,18,0.3c2.5,0.1,4.7,0.1,6.7,0.1
		c1,0,1.9,0,2.7,0.1c0.4,0,0.8,0,1.2,0c0.4,0,0.7,0,1.1,0.1c1.3,0.5,2.4,2,3.1,3.5c0.3,0.7,0.6,1.4,0.8,1.9c0.2,0.6,0.3,0.8,0.3,0.8
		v10.5c0,0-0.1,0.3-0.3,0.8c-0.2,0.5-0.4,1.2-0.8,1.9c-0.7,1.5-1.7,3-3.1,3.5c-0.3,0.1-0.7,0.1-1.1,0.1c-0.4,0-0.8,0-1.2,0
		c-0.8,0-1.7,0-2.7,0.1c-1.9,0-4.2,0.1-6.7,0.1c-5,0.1-11,0.3-18,0.3c-7,0-14.8,0.2-23.3,0.2c-8.6,0-17.8,0-27.6-0.2
		c-9.8-0.1-20.1-0.3-30.8-0.6c-21.4-0.5-44.2-1.1-67-1.7c-11.4-0.3-22.8-0.6-34-0.9c-11.2-0.3-22.3-0.7-33-1
		c-10.7-0.3-21-0.7-30.8-1c-9.8-0.3-19.1-0.7-27.6-1.1c-8.6-0.3-16.4-0.7-23.3-1c-7-0.3-13-0.6-18-0.9c-5-0.2-8.9-0.5-11.6-0.6
		C1.4,15.8,0,15.7,0,15.7V9.1z"/>
</g>
</svg>
